<svg xmlns="http://www.w3.org/2000/svg" width="644" height="485" viewBox="0 0 644 485">
  <g id="Grupo_13" data-name="Grupo 13" transform="translate(-177 -1896)">
    <g id="Grupo_10" data-name="Grupo 10" transform="translate(262.395 2064.132)">
      <path id="Trazado_1" data-name="Trazado 1" d="M277.07,549.923a141.231,141.231,0,0,1-74.336-21.068,5.413,5.413,0,1,1,5.694-9.208A130.411,130.411,0,0,0,277.07,539.1c72.08,0,130.721-58.641,130.721-130.72S349.15,277.656,277.07,277.656,146.35,336.3,146.35,408.376a130.734,130.734,0,0,0,5.888,38.913,5.413,5.413,0,1,1-10.337,3.219,141.554,141.554,0,0,1-6.378-42.132c0-78.049,63.5-141.547,141.547-141.547s141.547,63.5,141.547,141.547S355.12,549.923,277.07,549.923Z" transform="translate(-135.523 -266.829)" fill="#227d9b"/>
    </g>
    <g id="Grupo_11" data-name="Grupo 11" transform="translate(456.523 2063.485)">
      <path id="Trazado_2" data-name="Trazado 2" d="M624.157,543.494c-75.03,21.5-153.561-22.055-175.058-97.085s22.055-153.561,97.085-175.058a140.219,140.219,0,0,1,91.017,4.427,142.512,142.512,0,0,1,68.518,57.391,5.414,5.414,0,1,1-9.222,5.674A130.741,130.741,0,0,0,459.507,443.427c19.853,69.291,92.377,109.512,161.669,89.659A130.558,130.558,0,0,0,715.865,403.5a5.413,5.413,0,0,1,10.821-.333A141.374,141.374,0,0,1,624.157,543.494Z" transform="translate(-443.609 -265.802)" fill="#036283"/>
    </g>
    <g id="Grupo_12" data-name="Grupo 12" transform="translate(356.245 1927.999)">
      <path id="Trazado_3" data-name="Trazado 3" d="M426.012,333.877c-78.049,0-141.547-63.5-141.547-141.547s63.5-141.547,141.547-141.547a140.677,140.677,0,0,1,55.1,11.125,5.413,5.413,0,0,1-4.218,9.972,129.906,129.906,0,0,0-50.88-10.27c-72.08,0-130.721,58.641-130.721,130.72S353.932,323.05,426.012,323.05s130.72-58.641,130.72-130.721a130.764,130.764,0,0,0-5.876-38.874,5.413,5.413,0,1,1,10.338-3.215,141.566,141.566,0,0,1,6.365,42.09C567.559,270.38,504.061,333.877,426.012,333.877Z" transform="translate(-284.465 -50.783)" fill="#9ecdde"/>
    </g>
    <rect id="Rectángulo_1" data-name="Rectángulo 1" width="644" height="485" transform="translate(177 1896)" fill="none"/>
    <path id="Trazado_9" data-name="Trazado 9" d="M136.134,0A136.134,136.134,0,1,1,0,136.134,136.134,136.134,0,0,1,136.134,0Z" transform="translate(267.808 2069.546)" fill="#227d9b" opacity="0.19"/>
    <path id="Trazado_8" data-name="Trazado 8" d="M136.134,0A136.134,136.134,0,1,1,0,136.134,136.134,136.134,0,0,1,136.134,0Z" transform="translate(461.962 2074.959)" fill="#036283" opacity="0.32"/>
    <circle id="Elipse_3" data-name="Elipse 3" cx="136.134" cy="136.134" r="136.134" transform="translate(361.658 1933.412)" fill="#9ecdde" opacity="0.18"/>
  </g>
</svg>
